{
	"patcher" : 	{
		"fileversion" : 1,
		"appversion" : 		{
			"major" : 6,
			"minor" : 0,
			"revision" : 5
		}
,
		"rect" : [ 25.0, 69.0, 333.0, 246.0 ],
		"bglocked" : 0,
		"openinpresentation" : 0,
		"default_fontsize" : 9.0,
		"default_fontface" : 0,
		"default_fontname" : "Geneva",
		"gridonopen" : 0,
		"gridsize" : [ 8.0, 8.0 ],
		"gridsnaponopen" : 0,
		"statusbarvisible" : 2,
		"toolbarvisible" : 1,
		"boxanimatetime" : 200,
		"imprint" : 0,
		"enablehscroll" : 1,
		"enablevscroll" : 1,
		"devicewidth" : 0.0,
		"description" : "",
		"digest" : "",
		"tags" : "",
		"boxes" : [ 			{
				"box" : 				{
					"fontname" : "Geneva",
					"fontsize" : 9.0,
					"id" : "obj-1",
					"maxclass" : "comment",
					"numinlets" : 1,
					"numoutlets" : 0,
					"patching_rect" : [ 152.0, 192.0, 136.0, 19.0 ],
					"presentation_rect" : [ 153.0, 188.0, 0.0, 0.0 ],
					"text" : "(c)TatsuyaOgusu 2012."
				}

			}
, 			{
				"box" : 				{
					"fontname" : "Geneva",
					"fontsize" : 9.0,
					"id" : "obj-4",
					"maxclass" : "comment",
					"numinlets" : 1,
					"numoutlets" : 0,
					"patching_rect" : [ 80.0, 32.0, 136.0, 19.0 ],
					"text" : "message in (Symbols)"
				}

			}
, 			{
				"box" : 				{
					"fontname" : "Geneva",
					"fontsize" : 9.0,
					"id" : "obj-2",
					"maxclass" : "comment",
					"numinlets" : 1,
					"numoutlets" : 0,
					"patching_rect" : [ 128.0, 96.0, 48.0, 19.0 ],
					"text" : "<-- test"
				}

			}
, 			{
				"box" : 				{
					"fontname" : "Geneva",
					"fontsize" : 9.0,
					"id" : "obj-17",
					"maxclass" : "message",
					"numinlets" : 2,
					"numoutlets" : 1,
					"outlettype" : [ "" ],
					"patching_rect" : [ 78.0, 95.255859, 49.0, 17.0 ],
					"text" : "message"
				}

			}
, 			{
				"box" : 				{
					"fontname" : "Geneva",
					"fontsize" : 9.0,
					"id" : "obj-7",
					"maxclass" : "newobj",
					"numinlets" : 1,
					"numoutlets" : 2,
					"outlettype" : [ "open", "" ],
					"patching_rect" : [ 40.0, 128.0, 44.0, 19.0 ],
					"text" : "t open l"
				}

			}
, 			{
				"box" : 				{
					"fontname" : "Geneva",
					"fontsize" : 9.0,
					"id" : "obj-3",
					"maxclass" : "newobj",
					"numinlets" : 1,
					"numoutlets" : 1,
					"outlettype" : [ "" ],
					"patching_rect" : [ 40.0, 160.0, 47.0, 19.0 ],
					"text" : "pcontrol"
				}

			}
, 			{
				"box" : 				{
					"fontname" : "Geneva",
					"fontsize" : 9.0,
					"id" : "obj-122",
					"maxclass" : "newobj",
					"numinlets" : 1,
					"numoutlets" : 1,
					"outlettype" : [ "" ],
					"patcher" : 					{
						"fileversion" : 1,
						"appversion" : 						{
							"major" : 6,
							"minor" : 0,
							"revision" : 5
						}
,
						"rect" : [ 367.0, 239.0, 376.0, 178.0 ],
						"bgcolor" : [ 0.298039, 0.298039, 0.298039, 1.0 ],
						"bglocked" : 0,
						"openinpresentation" : 1,
						"default_fontsize" : 9.0,
						"default_fontface" : 0,
						"default_fontname" : "Geneva",
						"gridonopen" : 0,
						"gridsize" : [ 8.0, 8.0 ],
						"gridsnaponopen" : 0,
						"statusbarvisible" : 0,
						"toolbarvisible" : 0,
						"boxanimatetime" : 200,
						"imprint" : 0,
						"enablehscroll" : 0,
						"enablevscroll" : 0,
						"devicewidth" : 0.0,
						"description" : "",
						"digest" : "",
						"tags" : "",
						"showontab" : 0,
						"title" : "Message Alert",
						"boxes" : [ 							{
								"box" : 								{
									"fontname" : "Geneva",
									"fontsize" : 9.0,
									"id" : "obj-14",
									"maxclass" : "message",
									"numinlets" : 2,
									"numoutlets" : 1,
									"outlettype" : [ "" ],
									"patching_rect" : [ 40.0, 160.0, 33.0, 17.0 ],
									"text" : "close"
								}

							}
, 							{
								"box" : 								{
									"fontname" : "Geneva",
									"fontsize" : 9.0,
									"id" : "obj-8",
									"maxclass" : "newobj",
									"numinlets" : 1,
									"numoutlets" : 1,
									"outlettype" : [ "" ],
									"patching_rect" : [ 40.0, 72.0, 63.0, 19.0 ],
									"text" : "prepend set"
								}

							}
, 							{
								"box" : 								{
									"fontname" : "Geneva",
									"fontsize" : 20.0,
									"frgb" : [ 1.0, 1.0, 1.0, 1.0 ],
									"id" : "obj-7",
									"maxclass" : "comment",
									"numinlets" : 1,
									"numoutlets" : 0,
									"patching_rect" : [ 40.0, 96.0, 467.0, 33.0 ],
									"presentation" : 1,
									"presentation_rect" : [ 40.0, 40.0, 296.0, 33.0 ],
									"text" : "message",
									"textcolor" : [ 1.0, 1.0, 1.0, 1.0 ]
								}

							}
, 							{
								"box" : 								{
									"comment" : "",
									"id" : "obj-4",
									"maxclass" : "outlet",
									"numinlets" : 1,
									"numoutlets" : 0,
									"patching_rect" : [ 40.0, 192.0, 25.0, 25.0 ]
								}

							}
, 							{
								"box" : 								{
									"comment" : "",
									"id" : "obj-3",
									"maxclass" : "inlet",
									"numinlets" : 0,
									"numoutlets" : 1,
									"outlettype" : [ "" ],
									"patching_rect" : [ 40.0, 24.0, 25.0, 25.0 ]
								}

							}
, 							{
								"box" : 								{
									"bgcolor" : [ 0.6, 0.6, 0.6, 1.0 ],
									"bgoncolor" : [ 0.4, 0.4, 0.4, 1.0 ],
									"bgovercolor" : [ 0.6, 0.6, 0.6, 1.0 ],
									"fontface" : 1,
									"fontname" : "Arial",
									"fontsize" : 12.0,
									"id" : "obj-1",
									"maxclass" : "textbutton",
									"numinlets" : 1,
									"numoutlets" : 3,
									"outlettype" : [ "", "", "int" ],
									"parameter_enable" : 0,
									"patching_rect" : [ 40.0, 128.0, 56.0, 24.0 ],
									"presentation" : 1,
									"presentation_rect" : [ 160.0, 120.0, 56.0, 24.0 ],
									"text" : "O K"
								}

							}
, 							{
								"box" : 								{
									"fontname" : "Geneva",
									"fontsize" : 9.0,
									"id" : "obj-123",
									"maxclass" : "newobj",
									"numinlets" : 0,
									"numoutlets" : 1,
									"outlettype" : [ "" ],
									"patcher" : 									{
										"fileversion" : 1,
										"appversion" : 										{
											"major" : 6,
											"minor" : 0,
											"revision" : 5
										}
,
										"rect" : [ 482.0, 333.0, 294.0, 332.0 ],
										"bglocked" : 0,
										"openinpresentation" : 0,
										"default_fontsize" : 9.0,
										"default_fontface" : 0,
										"default_fontname" : "Geneva",
										"gridonopen" : 0,
										"gridsize" : [ 8.0, 8.0 ],
										"gridsnaponopen" : 0,
										"statusbarvisible" : 2,
										"toolbarvisible" : 1,
										"boxanimatetime" : 200,
										"imprint" : 0,
										"enablehscroll" : 1,
										"enablevscroll" : 1,
										"devicewidth" : 0.0,
										"description" : "",
										"digest" : "",
										"tags" : "",
										"boxes" : [ 											{
												"box" : 												{
													"fontname" : "Geneva",
													"fontsize" : 9.0,
													"id" : "obj-3",
													"maxclass" : "message",
													"numinlets" : 2,
													"numoutlets" : 1,
													"outlettype" : [ "" ],
													"patching_rect" : [ 144.0, 216.0, 72.0, 17.0 ],
													"text" : "savewindow 0"
												}

											}
, 											{
												"box" : 												{
													"fontname" : "Geneva",
													"fontsize" : 9.0,
													"id" : "obj-2",
													"maxclass" : "message",
													"numinlets" : 2,
													"numoutlets" : 1,
													"outlettype" : [ "" ],
													"patching_rect" : [ 144.0, 192.0, 72.0, 17.0 ],
													"text" : "savewindow 1"
												}

											}
, 											{
												"box" : 												{
													"fontname" : "Geneva",
													"fontsize" : 9.0,
													"id" : "obj-32",
													"maxclass" : "comment",
													"numinlets" : 1,
													"numoutlets" : 0,
													"patching_rect" : [ 16.0, 16.0, 150.0, 19.0 ],
													"text" : "Customize this patcher window"
												}

											}
, 											{
												"box" : 												{
													"fontname" : "Geneva",
													"fontsize" : 9.0,
													"id" : "obj-23",
													"maxclass" : "message",
													"numinlets" : 2,
													"numoutlets" : 1,
													"outlettype" : [ "" ],
													"patching_rect" : [ 144.0, 112.0, 102.0, 17.0 ],
													"text" : "window flags nogrow"
												}

											}
, 											{
												"box" : 												{
													"fontname" : "Geneva",
													"fontsize" : 9.0,
													"id" : "obj-24",
													"maxclass" : "message",
													"numinlets" : 2,
													"numoutlets" : 1,
													"outlettype" : [ "" ],
													"patching_rect" : [ 144.0, 88.0, 102.0, 17.0 ],
													"text" : "window flags noclose"
												}

											}
, 											{
												"box" : 												{
													"fontname" : "Geneva",
													"fontsize" : 9.0,
													"id" : "obj-25",
													"maxclass" : "message",
													"numinlets" : 2,
													"numoutlets" : 1,
													"outlettype" : [ "" ],
													"patching_rect" : [ 144.0, 64.0, 118.0, 17.0 ],
													"text" : "window flags nominimize"
												}

											}
, 											{
												"box" : 												{
													"fontname" : "Geneva",
													"fontsize" : 9.0,
													"id" : "obj-16",
													"maxclass" : "message",
													"numinlets" : 2,
													"numoutlets" : 1,
													"outlettype" : [ "" ],
													"patching_rect" : [ 16.0, 112.0, 91.0, 17.0 ],
													"text" : "window flags grow"
												}

											}
, 											{
												"box" : 												{
													"fontname" : "Geneva",
													"fontsize" : 9.0,
													"id" : "obj-18",
													"maxclass" : "message",
													"numinlets" : 2,
													"numoutlets" : 1,
													"outlettype" : [ "" ],
													"patching_rect" : [ 16.0, 88.0, 92.0, 17.0 ],
													"text" : "window flags close"
												}

											}
, 											{
												"box" : 												{
													"fontname" : "Geneva",
													"fontsize" : 9.0,
													"id" : "obj-14",
													"maxclass" : "message",
													"numinlets" : 2,
													"numoutlets" : 1,
													"outlettype" : [ "" ],
													"patching_rect" : [ 16.0, 64.0, 107.0, 17.0 ],
													"text" : "window flags minimize"
												}

											}
, 											{
												"box" : 												{
													"fontname" : "Geneva",
													"fontsize" : 9.0,
													"id" : "obj-11",
													"maxclass" : "message",
													"numinlets" : 2,
													"numoutlets" : 1,
													"outlettype" : [ "" ],
													"patching_rect" : [ 144.0, 40.0, 104.0, 17.0 ],
													"text" : "window flags nozoom"
												}

											}
, 											{
												"box" : 												{
													"fontname" : "Geneva",
													"fontsize" : 9.0,
													"id" : "obj-12",
													"maxclass" : "message",
													"numinlets" : 2,
													"numoutlets" : 1,
													"outlettype" : [ "" ],
													"patching_rect" : [ 16.0, 40.0, 93.0, 17.0 ],
													"text" : "window flags zoom"
												}

											}
, 											{
												"box" : 												{
													"fontname" : "Geneva",
													"fontsize" : 9.0,
													"id" : "obj-10",
													"maxclass" : "message",
													"numinlets" : 2,
													"numoutlets" : 1,
													"outlettype" : [ "" ],
													"patching_rect" : [ 16.0, 192.0, 66.0, 17.0 ],
													"text" : "window exec"
												}

											}
, 											{
												"box" : 												{
													"fontname" : "Geneva",
													"fontsize" : 9.0,
													"id" : "obj-9",
													"maxclass" : "newobj",
													"numinlets" : 1,
													"numoutlets" : 2,
													"outlettype" : [ "bang", "" ],
													"patching_rect" : [ 16.0, 168.0, 96.0, 19.0 ],
													"text" : "t b l"
												}

											}
, 											{
												"box" : 												{
													"fontname" : "Geneva",
													"fontsize" : 9.0,
													"id" : "obj-6",
													"maxclass" : "message",
													"numinlets" : 2,
													"numoutlets" : 1,
													"outlettype" : [ "" ],
													"patching_rect" : [ 144.0, 136.0, 100.0, 17.0 ],
													"text" : "window flags nofloat"
												}

											}
, 											{
												"box" : 												{
													"fontname" : "Geneva",
													"fontsize" : 9.0,
													"id" : "obj-4",
													"maxclass" : "message",
													"numinlets" : 2,
													"numoutlets" : 1,
													"outlettype" : [ "" ],
													"patching_rect" : [ 16.0, 136.0, 90.0, 17.0 ],
													"text" : "window flags float"
												}

											}
, 											{
												"box" : 												{
													"comment" : "",
													"id" : "obj-33",
													"maxclass" : "outlet",
													"numinlets" : 1,
													"numoutlets" : 0,
													"patching_rect" : [ 45.666672, 269.0, 25.0, 25.0 ]
												}

											}
 ],
										"lines" : [ 											{
												"patchline" : 												{
													"destination" : [ "obj-33", 0 ],
													"disabled" : 0,
													"hidden" : 0,
													"source" : [ "obj-10", 0 ]
												}

											}
, 											{
												"patchline" : 												{
													"destination" : [ "obj-9", 0 ],
													"disabled" : 0,
													"hidden" : 1,
													"source" : [ "obj-11", 0 ]
												}

											}
, 											{
												"patchline" : 												{
													"destination" : [ "obj-9", 0 ],
													"disabled" : 0,
													"hidden" : 1,
													"source" : [ "obj-12", 0 ]
												}

											}
, 											{
												"patchline" : 												{
													"destination" : [ "obj-9", 0 ],
													"disabled" : 0,
													"hidden" : 1,
													"source" : [ "obj-14", 0 ]
												}

											}
, 											{
												"patchline" : 												{
													"destination" : [ "obj-9", 0 ],
													"disabled" : 0,
													"hidden" : 1,
													"source" : [ "obj-16", 0 ]
												}

											}
, 											{
												"patchline" : 												{
													"destination" : [ "obj-9", 0 ],
													"disabled" : 0,
													"hidden" : 1,
													"source" : [ "obj-18", 0 ]
												}

											}
, 											{
												"patchline" : 												{
													"destination" : [ "obj-33", 0 ],
													"disabled" : 0,
													"hidden" : 1,
													"source" : [ "obj-2", 0 ]
												}

											}
, 											{
												"patchline" : 												{
													"destination" : [ "obj-9", 0 ],
													"disabled" : 0,
													"hidden" : 1,
													"source" : [ "obj-23", 0 ]
												}

											}
, 											{
												"patchline" : 												{
													"destination" : [ "obj-9", 0 ],
													"disabled" : 0,
													"hidden" : 1,
													"source" : [ "obj-24", 0 ]
												}

											}
, 											{
												"patchline" : 												{
													"destination" : [ "obj-9", 0 ],
													"disabled" : 0,
													"hidden" : 1,
													"source" : [ "obj-25", 0 ]
												}

											}
, 											{
												"patchline" : 												{
													"destination" : [ "obj-33", 0 ],
													"disabled" : 0,
													"hidden" : 1,
													"source" : [ "obj-3", 0 ]
												}

											}
, 											{
												"patchline" : 												{
													"destination" : [ "obj-9", 0 ],
													"disabled" : 0,
													"hidden" : 1,
													"source" : [ "obj-4", 0 ]
												}

											}
, 											{
												"patchline" : 												{
													"destination" : [ "obj-9", 0 ],
													"disabled" : 0,
													"hidden" : 1,
													"source" : [ "obj-6", 0 ]
												}

											}
, 											{
												"patchline" : 												{
													"destination" : [ "obj-10", 0 ],
													"disabled" : 0,
													"hidden" : 0,
													"source" : [ "obj-9", 0 ]
												}

											}
, 											{
												"patchline" : 												{
													"destination" : [ "obj-33", 0 ],
													"disabled" : 0,
													"hidden" : 0,
													"source" : [ "obj-9", 1 ]
												}

											}
 ],
										"dependency_cache" : [  ]
									}
,
									"patching_rect" : [ 232.0, 176.0, 64.0, 19.0 ],
									"saved_object_attributes" : 									{
										"default_fontface" : 0,
										"digest" : "",
										"default_fontname" : "Geneva",
										"globalpatchername" : "",
										"fontname" : "Geneva",
										"default_fontsize" : 9.0,
										"description" : "",
										"fontface" : 0,
										"fontsize" : 9.0,
										"tags" : ""
									}
,
									"text" : "p settings"
								}

							}
, 							{
								"box" : 								{
									"fontname" : "Geneva",
									"fontsize" : 9.0,
									"id" : "obj-29",
									"maxclass" : "newobj",
									"numinlets" : 1,
									"numoutlets" : 2,
									"outlettype" : [ "", "" ],
									"patching_rect" : [ 232.0, 200.0, 64.0, 19.0 ],
									"save" : [ "#N", "thispatcher", ";", "#Q", "end", ";" ],
									"text" : "thispatcher"
								}

							}
 ],
						"lines" : [ 							{
								"patchline" : 								{
									"destination" : [ "obj-14", 0 ],
									"disabled" : 0,
									"hidden" : 0,
									"source" : [ "obj-1", 0 ]
								}

							}
, 							{
								"patchline" : 								{
									"destination" : [ "obj-29", 0 ],
									"disabled" : 0,
									"hidden" : 0,
									"source" : [ "obj-123", 0 ]
								}

							}
, 							{
								"patchline" : 								{
									"destination" : [ "obj-4", 0 ],
									"disabled" : 0,
									"hidden" : 0,
									"source" : [ "obj-14", 0 ]
								}

							}
, 							{
								"patchline" : 								{
									"destination" : [ "obj-8", 0 ],
									"disabled" : 0,
									"hidden" : 0,
									"source" : [ "obj-3", 0 ]
								}

							}
, 							{
								"patchline" : 								{
									"destination" : [ "obj-7", 0 ],
									"disabled" : 0,
									"hidden" : 0,
									"source" : [ "obj-8", 0 ]
								}

							}
 ],
						"dependency_cache" : [  ]
					}
,
					"patching_rect" : [ 40.0, 184.0, 66.0, 19.0 ],
					"saved_object_attributes" : 					{
						"default_fontface" : 0,
						"digest" : "",
						"default_fontname" : "Geneva",
						"globalpatchername" : "",
						"fontname" : "Geneva",
						"default_fontsize" : 9.0,
						"description" : "",
						"fontface" : 0,
						"fontsize" : 9.0,
						"tags" : ""
					}
,
					"text" : "p done_alert"
				}

			}
, 			{
				"box" : 				{
					"comment" : "",
					"id" : "obj-22",
					"maxclass" : "inlet",
					"numinlets" : 0,
					"numoutlets" : 1,
					"outlettype" : [ "" ],
					"patching_rect" : [ 40.0, 32.0, 25.0, 25.0 ]
				}

			}
 ],
		"lines" : [ 			{
				"patchline" : 				{
					"destination" : [ "obj-3", 0 ],
					"disabled" : 0,
					"hidden" : 0,
					"midpoints" : [ 49.5, 208.0, 124.0, 208.0, 124.0, 151.0, 49.5, 151.0 ],
					"source" : [ "obj-122", 0 ]
				}

			}
, 			{
				"patchline" : 				{
					"destination" : [ "obj-7", 0 ],
					"disabled" : 0,
					"hidden" : 0,
					"source" : [ "obj-17", 0 ]
				}

			}
, 			{
				"patchline" : 				{
					"destination" : [ "obj-7", 0 ],
					"disabled" : 0,
					"hidden" : 0,
					"source" : [ "obj-22", 0 ]
				}

			}
, 			{
				"patchline" : 				{
					"destination" : [ "obj-122", 0 ],
					"disabled" : 0,
					"hidden" : 0,
					"source" : [ "obj-3", 0 ]
				}

			}
, 			{
				"patchline" : 				{
					"destination" : [ "obj-122", 0 ],
					"disabled" : 0,
					"hidden" : 0,
					"source" : [ "obj-7", 1 ]
				}

			}
, 			{
				"patchline" : 				{
					"destination" : [ "obj-3", 0 ],
					"disabled" : 0,
					"hidden" : 0,
					"source" : [ "obj-7", 0 ]
				}

			}
 ],
		"dependency_cache" : [  ]
	}

}
