{
	"patcher" : 	{
		"fileversion" : 1,
		"rect" : [ 665.0, 198.0, 430.0, 345.0 ],
		"bgcolor" : [ 1.0, 0.784314, 0.784314, 1.0 ],
		"bglocked" : 0,
		"defrect" : [ 665.0, 198.0, 430.0, 345.0 ],
		"openrect" : [ 0.0, 0.0, 0.0, 0.0 ],
		"openinpresentation" : 0,
		"default_fontsize" : 11.0,
		"default_fontface" : 0,
		"default_fontname" : "Arial",
		"gridonopen" : 0,
		"gridsize" : [ 15.0, 15.0 ],
		"gridsnaponopen" : 0,
		"toolbarvisible" : 1,
		"boxanimatetime" : 200,
		"imprint" : 0,
		"enablehscroll" : 1,
		"enablevscroll" : 1,
		"boxes" : [ 			{
				"box" : 				{
					"maxclass" : "outlet",
					"patching_rect" : [ 13.0, 306.0, 25.0, 25.0 ],
					"id" : "obj-21",
					"numinlets" : 1,
					"numoutlets" : 0,
					"comment" : ""
				}

			}
, 			{
				"box" : 				{
					"maxclass" : "button",
					"outlettype" : [ "bang" ],
					"patching_rect" : [ 47.0, 309.0, 20.0, 20.0 ],
					"id" : "obj-20",
					"numinlets" : 1,
					"numoutlets" : 1
				}

			}
, 			{
				"box" : 				{
					"maxclass" : "message",
					"text" : "now recording...",
					"outlettype" : [ "" ],
					"patching_rect" : [ 297.0, 68.0, 89.0, 17.0 ],
					"id" : "obj-76",
					"fontname" : "Arial",
					"hidden" : 1,
					"numinlets" : 2,
					"fontsize" : 11.0,
					"numoutlets" : 1
				}

			}
, 			{
				"box" : 				{
					"maxclass" : "newobj",
					"text" : "route start stop record",
					"outlettype" : [ "", "", "", "" ],
					"patching_rect" : [ 215.0, 20.0, 118.0, 19.0 ],
					"id" : "obj-71",
					"fontname" : "Arial",
					"hidden" : 1,
					"numinlets" : 1,
					"fontsize" : 11.0,
					"numoutlets" : 4
				}

			}
, 			{
				"box" : 				{
					"maxclass" : "message",
					"text" : "stand by.",
					"outlettype" : [ "" ],
					"patching_rect" : [ 298.0, 44.0, 54.0, 17.0 ],
					"id" : "obj-67",
					"fontname" : "Arial",
					"hidden" : 1,
					"numinlets" : 2,
					"fontsize" : 11.0,
					"numoutlets" : 1
				}

			}
, 			{
				"box" : 				{
					"maxclass" : "message",
					"text" : "now playing...",
					"outlettype" : [ "" ],
					"patching_rect" : [ 213.0, 46.0, 78.0, 17.0 ],
					"id" : "obj-64",
					"fontname" : "Arial",
					"hidden" : 1,
					"numinlets" : 2,
					"fontsize" : 11.0,
					"numoutlets" : 1
				}

			}
, 			{
				"box" : 				{
					"maxclass" : "newobj",
					"text" : "prepend set",
					"outlettype" : [ "" ],
					"patching_rect" : [ 206.0, 71.0, 69.0, 19.0 ],
					"id" : "obj-62",
					"fontname" : "Arial",
					"hidden" : 1,
					"numinlets" : 1,
					"fontsize" : 11.0,
					"numoutlets" : 1
				}

			}
, 			{
				"box" : 				{
					"maxclass" : "comment",
					"prototypename" : "comment",
					"text" : "stand by.",
					"textcolor" : [ 1.0, 0.019608, 0.019608, 1.0 ],
					"patching_rect" : [ 61.0, 274.0, 138.0, 23.0 ],
					"id" : "obj-18",
					"fontname" : "Arial",
					"frgb" : [ 1.0, 0.019608, 0.019608, 1.0 ],
					"fontface" : 2,
					"numinlets" : 1,
					"fontsize" : 14.0,
					"numoutlets" : 0
				}

			}
, 			{
				"box" : 				{
					"maxclass" : "comment",
					"text" : "Loop On/Off\n",
					"linecount" : 2,
					"patching_rect" : [ 248.0, 110.0, 49.0, 32.0 ],
					"id" : "obj-36",
					"fontname" : "Arial",
					"numinlets" : 1,
					"fontsize" : 11.0,
					"numoutlets" : 0
				}

			}
, 			{
				"box" : 				{
					"maxclass" : "toggle",
					"outlettype" : [ "int" ],
					"patching_rect" : [ 222.0, 114.0, 21.0, 21.0 ],
					"id" : "obj-34",
					"numinlets" : 1,
					"numoutlets" : 1
				}

			}
, 			{
				"box" : 				{
					"maxclass" : "gswitch2",
					"outlettype" : [ "", "" ],
					"patching_rect" : [ 222.0, 138.0, 29.0, 23.794872 ],
					"id" : "obj-33",
					"hidden" : 1,
					"numinlets" : 2,
					"numoutlets" : 2
				}

			}
, 			{
				"box" : 				{
					"maxclass" : "inlet",
					"outlettype" : [ "" ],
					"patching_rect" : [ 7.0, 9.0, 25.0, 25.0 ],
					"id" : "obj-15",
					"numinlets" : 0,
					"numoutlets" : 1,
					"comment" : ""
				}

			}
, 			{
				"box" : 				{
					"maxclass" : "newobj",
					"text" : "sel 0 1",
					"outlettype" : [ "bang", "bang", "" ],
					"patching_rect" : [ 80.0, 79.0, 46.0, 19.0 ],
					"id" : "obj-104",
					"fontname" : "Arial",
					"numinlets" : 1,
					"fontsize" : 11.0,
					"numoutlets" : 3
				}

			}
, 			{
				"box" : 				{
					"maxclass" : "toggle",
					"outlettype" : [ "int" ],
					"bordercolor" : [ 1.0, 0.0, 0.0, 1.0 ],
					"patching_rect" : [ 80.0, 46.0, 26.0, 26.0 ],
					"id" : "obj-103",
					"checkedcolor" : [ 1.0, 0.0, 0.0, 1.0 ],
					"numinlets" : 1,
					"numoutlets" : 1
				}

			}
, 			{
				"box" : 				{
					"maxclass" : "message",
					"text" : "stop",
					"outlettype" : [ "" ],
					"patching_rect" : [ 80.0, 116.0, 31.0, 17.0 ],
					"id" : "obj-101",
					"fontname" : "Arial",
					"bgcolor" : [ 1.0, 1.0, 0.517647, 1.0 ],
					"numinlets" : 2,
					"fontsize" : 11.0,
					"numoutlets" : 1
				}

			}
, 			{
				"box" : 				{
					"maxclass" : "message",
					"text" : "record",
					"outlettype" : [ "" ],
					"patching_rect" : [ 124.0, 117.0, 42.0, 17.0 ],
					"id" : "obj-99",
					"fontname" : "Arial",
					"bgcolor" : [ 0.941176, 0.0, 0.0, 1.0 ],
					"numinlets" : 2,
					"fontsize" : 11.0,
					"numoutlets" : 1
				}

			}
, 			{
				"box" : 				{
					"maxclass" : "message",
					"text" : "write",
					"outlettype" : [ "" ],
					"patching_rect" : [ 171.0, 117.0, 34.0, 17.0 ],
					"id" : "obj-97",
					"fontname" : "Arial",
					"numinlets" : 2,
					"fontsize" : 11.0,
					"numoutlets" : 1
				}

			}
, 			{
				"box" : 				{
					"maxclass" : "message",
					"text" : "start",
					"outlettype" : [ "" ],
					"patching_rect" : [ 44.0, 116.0, 32.0, 17.0 ],
					"id" : "obj-14",
					"fontname" : "Arial",
					"bgcolor" : [ 0.631373, 0.933333, 0.647059, 1.0 ],
					"numinlets" : 2,
					"fontsize" : 11.0,
					"numoutlets" : 1
				}

			}
, 			{
				"box" : 				{
					"maxclass" : "comment",
					"text" : "Poly Pressure",
					"linecount" : 2,
					"patching_rect" : [ 97.0, 164.0, 53.0, 32.0 ],
					"id" : "obj-49",
					"fontname" : "Arial",
					"numinlets" : 1,
					"fontsize" : 11.0,
					"numoutlets" : 0
				}

			}
, 			{
				"box" : 				{
					"maxclass" : "comment",
					"text" : "Note On/Off",
					"linecount" : 2,
					"patching_rect" : [ 45.0, 164.0, 42.0, 32.0 ],
					"id" : "obj-50",
					"fontname" : "Arial",
					"numinlets" : 1,
					"fontsize" : 11.0,
					"numoutlets" : 0
				}

			}
, 			{
				"box" : 				{
					"maxclass" : "comment",
					"text" : "Control Change",
					"linecount" : 2,
					"patching_rect" : [ 152.0, 164.0, 47.0, 32.0 ],
					"id" : "obj-51",
					"fontname" : "Arial",
					"numinlets" : 1,
					"fontsize" : 11.0,
					"numoutlets" : 0
				}

			}
, 			{
				"box" : 				{
					"maxclass" : "comment",
					"text" : "MIDI Channel",
					"linecount" : 2,
					"patching_rect" : [ 375.0, 164.0, 49.0, 32.0 ],
					"id" : "obj-52",
					"fontname" : "Arial",
					"numinlets" : 1,
					"fontsize" : 11.0,
					"numoutlets" : 0
				}

			}
, 			{
				"box" : 				{
					"maxclass" : "comment",
					"text" : "After Touch",
					"linecount" : 2,
					"patching_rect" : [ 264.0, 164.0, 40.0, 32.0 ],
					"id" : "obj-53",
					"fontname" : "Arial",
					"numinlets" : 1,
					"fontsize" : 11.0,
					"numoutlets" : 0
				}

			}
, 			{
				"box" : 				{
					"maxclass" : "comment",
					"text" : "Pgm Change",
					"linecount" : 2,
					"patching_rect" : [ 211.0, 164.0, 47.0, 32.0 ],
					"id" : "obj-54",
					"fontname" : "Arial",
					"numinlets" : 1,
					"fontsize" : 11.0,
					"numoutlets" : 0
				}

			}
, 			{
				"box" : 				{
					"maxclass" : "comment",
					"text" : "Pitch Bend",
					"linecount" : 2,
					"patching_rect" : [ 318.0, 164.0, 36.0, 32.0 ],
					"id" : "obj-55",
					"fontname" : "Arial",
					"numinlets" : 1,
					"fontsize" : 11.0,
					"numoutlets" : 0
				}

			}
, 			{
				"box" : 				{
					"maxclass" : "inlet",
					"outlettype" : [ "" ],
					"patching_rect" : [ 377.0, 200.0, 25.0, 25.0 ],
					"id" : "obj-9",
					"numinlets" : 0,
					"presentation_rect" : [ 469.0, 199.0, 0.0, 0.0 ],
					"numoutlets" : 1,
					"comment" : ""
				}

			}
, 			{
				"box" : 				{
					"maxclass" : "inlet",
					"outlettype" : [ "" ],
					"patching_rect" : [ 322.0, 200.0, 25.0, 25.0 ],
					"id" : "obj-8",
					"numinlets" : 0,
					"presentation_rect" : [ 399.0, 199.0, 0.0, 0.0 ],
					"numoutlets" : 1,
					"comment" : ""
				}

			}
, 			{
				"box" : 				{
					"maxclass" : "inlet",
					"outlettype" : [ "" ],
					"patching_rect" : [ 267.0, 200.0, 25.0, 25.0 ],
					"id" : "obj-7",
					"numinlets" : 0,
					"presentation_rect" : [ 322.0, 199.0, 0.0, 0.0 ],
					"numoutlets" : 1,
					"comment" : ""
				}

			}
, 			{
				"box" : 				{
					"maxclass" : "inlet",
					"outlettype" : [ "" ],
					"patching_rect" : [ 212.0, 200.0, 25.0, 25.0 ],
					"id" : "obj-6",
					"numinlets" : 0,
					"presentation_rect" : [ 247.0, 200.0, 0.0, 0.0 ],
					"numoutlets" : 1,
					"comment" : ""
				}

			}
, 			{
				"box" : 				{
					"maxclass" : "inlet",
					"outlettype" : [ "" ],
					"patching_rect" : [ 156.0, 200.0, 25.0, 25.0 ],
					"id" : "obj-5",
					"numinlets" : 0,
					"presentation_rect" : [ 168.0, 201.0, 0.0, 0.0 ],
					"numoutlets" : 1,
					"comment" : ""
				}

			}
, 			{
				"box" : 				{
					"maxclass" : "inlet",
					"outlettype" : [ "" ],
					"patching_rect" : [ 101.0, 200.0, 25.0, 25.0 ],
					"id" : "obj-4",
					"numinlets" : 0,
					"presentation_rect" : [ 91.0, 199.0, 0.0, 0.0 ],
					"numoutlets" : 1,
					"comment" : ""
				}

			}
, 			{
				"box" : 				{
					"maxclass" : "newobj",
					"text" : "midiformat",
					"outlettype" : [ "int" ],
					"patching_rect" : [ 46.0, 232.0, 350.0, 20.0 ],
					"id" : "obj-3",
					"fontname" : "Arial",
					"numinlets" : 7,
					"fontsize" : 12.0,
					"numoutlets" : 1
				}

			}
, 			{
				"box" : 				{
					"maxclass" : "inlet",
					"outlettype" : [ "" ],
					"patching_rect" : [ 46.0, 200.0, 25.0, 25.0 ],
					"id" : "obj-2",
					"numinlets" : 0,
					"numoutlets" : 1,
					"comment" : ""
				}

			}
, 			{
				"box" : 				{
					"maxclass" : "newobj",
					"text" : "seq",
					"outlettype" : [ "int", "bang" ],
					"patching_rect" : [ 13.0, 275.0, 41.5, 20.0 ],
					"id" : "obj-1",
					"fontname" : "Arial",
					"numinlets" : 1,
					"fontsize" : 12.0,
					"numoutlets" : 2,
					"color" : [ 0.0, 0.0, 1.0, 1.0 ]
				}

			}
 ],
		"lines" : [ 			{
				"patchline" : 				{
					"source" : [ "obj-1", 0 ],
					"destination" : [ "obj-21", 0 ],
					"hidden" : 0,
					"midpoints" : [  ]
				}

			}
, 			{
				"patchline" : 				{
					"source" : [ "obj-20", 0 ],
					"destination" : [ "obj-33", 1 ],
					"hidden" : 1,
					"midpoints" : [  ]
				}

			}
, 			{
				"patchline" : 				{
					"source" : [ "obj-1", 1 ],
					"destination" : [ "obj-20", 0 ],
					"hidden" : 0,
					"midpoints" : [ 45.0, 302.5, 56.5, 302.5 ]
				}

			}
, 			{
				"patchline" : 				{
					"source" : [ "obj-33", 1 ],
					"destination" : [ "obj-1", 0 ],
					"hidden" : 1,
					"midpoints" : [  ]
				}

			}
, 			{
				"patchline" : 				{
					"source" : [ "obj-33", 0 ],
					"destination" : [ "obj-67", 0 ],
					"hidden" : 1,
					"midpoints" : [  ]
				}

			}
, 			{
				"patchline" : 				{
					"source" : [ "obj-99", 0 ],
					"destination" : [ "obj-71", 0 ],
					"hidden" : 1,
					"midpoints" : [  ]
				}

			}
, 			{
				"patchline" : 				{
					"source" : [ "obj-101", 0 ],
					"destination" : [ "obj-71", 0 ],
					"hidden" : 1,
					"midpoints" : [  ]
				}

			}
, 			{
				"patchline" : 				{
					"source" : [ "obj-14", 0 ],
					"destination" : [ "obj-71", 0 ],
					"hidden" : 1,
					"midpoints" : [  ]
				}

			}
, 			{
				"patchline" : 				{
					"source" : [ "obj-76", 0 ],
					"destination" : [ "obj-62", 0 ],
					"hidden" : 1,
					"midpoints" : [  ]
				}

			}
, 			{
				"patchline" : 				{
					"source" : [ "obj-71", 2 ],
					"destination" : [ "obj-76", 0 ],
					"hidden" : 1,
					"midpoints" : [  ]
				}

			}
, 			{
				"patchline" : 				{
					"source" : [ "obj-71", 1 ],
					"destination" : [ "obj-67", 0 ],
					"hidden" : 1,
					"midpoints" : [  ]
				}

			}
, 			{
				"patchline" : 				{
					"source" : [ "obj-71", 0 ],
					"destination" : [ "obj-64", 0 ],
					"hidden" : 1,
					"midpoints" : [  ]
				}

			}
, 			{
				"patchline" : 				{
					"source" : [ "obj-67", 0 ],
					"destination" : [ "obj-62", 0 ],
					"hidden" : 1,
					"midpoints" : [  ]
				}

			}
, 			{
				"patchline" : 				{
					"source" : [ "obj-64", 0 ],
					"destination" : [ "obj-62", 0 ],
					"hidden" : 1,
					"midpoints" : [  ]
				}

			}
, 			{
				"patchline" : 				{
					"source" : [ "obj-62", 0 ],
					"destination" : [ "obj-18", 0 ],
					"hidden" : 1,
					"midpoints" : [  ]
				}

			}
, 			{
				"patchline" : 				{
					"source" : [ "obj-34", 0 ],
					"destination" : [ "obj-33", 0 ],
					"hidden" : 1,
					"midpoints" : [  ]
				}

			}
, 			{
				"patchline" : 				{
					"source" : [ "obj-15", 0 ],
					"destination" : [ "obj-103", 0 ],
					"hidden" : 0,
					"midpoints" : [ 16.5, 39.5, 89.5, 39.5 ]
				}

			}
, 			{
				"patchline" : 				{
					"source" : [ "obj-14", 0 ],
					"destination" : [ "obj-1", 0 ],
					"hidden" : 0,
					"midpoints" : [ 53.5, 143.0, 22.5, 143.0 ]
				}

			}
, 			{
				"patchline" : 				{
					"source" : [ "obj-101", 0 ],
					"destination" : [ "obj-1", 0 ],
					"hidden" : 0,
					"midpoints" : [ 89.5, 143.0, 22.5, 143.0 ]
				}

			}
, 			{
				"patchline" : 				{
					"source" : [ "obj-99", 0 ],
					"destination" : [ "obj-1", 0 ],
					"hidden" : 0,
					"midpoints" : [ 133.5, 143.0, 22.5, 143.0 ]
				}

			}
, 			{
				"patchline" : 				{
					"source" : [ "obj-97", 0 ],
					"destination" : [ "obj-1", 0 ],
					"hidden" : 0,
					"midpoints" : [ 180.5, 143.0, 22.5, 143.0 ]
				}

			}
, 			{
				"patchline" : 				{
					"source" : [ "obj-104", 1 ],
					"destination" : [ "obj-99", 0 ],
					"hidden" : 0,
					"midpoints" : [ 103.0, 111.0, 133.5, 111.0 ]
				}

			}
, 			{
				"patchline" : 				{
					"source" : [ "obj-104", 0 ],
					"destination" : [ "obj-101", 0 ],
					"hidden" : 0,
					"midpoints" : [  ]
				}

			}
, 			{
				"patchline" : 				{
					"source" : [ "obj-103", 0 ],
					"destination" : [ "obj-104", 0 ],
					"hidden" : 0,
					"midpoints" : [  ]
				}

			}
, 			{
				"patchline" : 				{
					"source" : [ "obj-9", 0 ],
					"destination" : [ "obj-3", 6 ],
					"hidden" : 0,
					"midpoints" : [  ]
				}

			}
, 			{
				"patchline" : 				{
					"source" : [ "obj-8", 0 ],
					"destination" : [ "obj-3", 5 ],
					"hidden" : 0,
					"midpoints" : [  ]
				}

			}
, 			{
				"patchline" : 				{
					"source" : [ "obj-7", 0 ],
					"destination" : [ "obj-3", 4 ],
					"hidden" : 0,
					"midpoints" : [  ]
				}

			}
, 			{
				"patchline" : 				{
					"source" : [ "obj-6", 0 ],
					"destination" : [ "obj-3", 3 ],
					"hidden" : 0,
					"midpoints" : [  ]
				}

			}
, 			{
				"patchline" : 				{
					"source" : [ "obj-5", 0 ],
					"destination" : [ "obj-3", 2 ],
					"hidden" : 0,
					"midpoints" : [  ]
				}

			}
, 			{
				"patchline" : 				{
					"source" : [ "obj-4", 0 ],
					"destination" : [ "obj-3", 1 ],
					"hidden" : 0,
					"midpoints" : [  ]
				}

			}
, 			{
				"patchline" : 				{
					"source" : [ "obj-2", 0 ],
					"destination" : [ "obj-3", 0 ],
					"hidden" : 0,
					"midpoints" : [  ]
				}

			}
, 			{
				"patchline" : 				{
					"source" : [ "obj-3", 0 ],
					"destination" : [ "obj-1", 0 ],
					"hidden" : 0,
					"midpoints" : [ 55.5, 262.0, 22.5, 262.0 ]
				}

			}
 ]
	}

}
